<svg xmlns="http://www.w3.org/2000/svg" width="399.75" height="171.25" viewBox="0 0 399.75 171.25">
  <defs>
    <style>
      .cls-1 {
        fill: #4d4d4d;
        fill-rule: evenodd;
      }
    </style>
  </defs>
  <path id="Signature" class="cls-1" d="M1737.82,3218.78c-2.83-9.8-12.92-13.75-25.41-10.14-16.72,4.84-27.15,23.47-22.15,40.76a53.454,53.454,0,0,0,5.7,12.51c-41.42,11.56-78.2,5.33-83.86-14.26-3-10.38,1.94-18.47,13.28-21.75,13.45-3.89,29.62,3.09,42.61,18.49l1.97-1.82c-13.4-16.11-30.76-23.58-45.36-19.36-12.87,3.72-18.64,13.3-15.19,25.21,6.16,21.33,44.62,28.32,88.09,15.96,8.09,12.86,19.78,24.47,23.56,37.53,6,20.75-10.37,40.47-41.87,49.58-21.91,6.34-49.06,3.16-55.89-20.47-4.28-14.8,6.52-31.45,23.62-36.4,16.9-4.89,34.7,1.21,41.39,14.26l2.58-1.16c-7.47-14.29-26.69-21.01-44.75-15.79-18.64,5.39-30.26,23.53-25.53,39.86,7.39,25.56,37.07,28.84,59.35,22.39,32.86-9.5,50.29-30.57,43.79-53.05-3.95-13.64-15.38-25.11-23.56-37.53C1726.1,3255.27,1742.71,3235.69,1737.82,3218.78Zm-39.17,42.35a53.27,53.27,0,0,1-5.7-12.51c-4.56-15.75,4.87-32.84,20.24-37.29,10.95-3.16,19.61.16,21.94,8.23C1739.58,3234.93,1723.51,3253.52,1698.65,3261.13Zm44.87,3.26-8.28,4.48,1.16,2.58,8.28-4.48Zm17.83,17.75c-3.59,12.07-9.11,29.7-16.02,31.7-2.12.61-4.51,0.26-5.73-3.97-1.94-6.72.54-21.18,3.31-30.31l-2.77-.24c-2.86,9.57-5.28,24.22-3.23,31.33,1.67,5.76,5.55,6.93,9.2,5.88,9.6-2.78,14.4-24.36,17.5-33.79Zm73.88,29.43-2.47-1.36c-3.45,5.36-8.85,9.01-16.53,11.23-10.05,2.7-24.8,1.34-37.2.97,4.76-15.95,6.26-37.41,3.83-58.77l-0.06-.2-0.05-.19-2.86.2c-0.43,20.11-6.55,40-13.41,42.19-2.88.83-4.4-.81-5.23-3.69-2.22-7.69,2.88-27.48,14.92-34.09l-1.55-2.47c-12.94,7.08-18.73,28.11-16.06,37.33,1.28,4.42,4.28,6.89,8.7,5.61,7.24-2.31,11.57-15.42,13.81-28.56,0.46,16.73-1.33,31.4-4.76,42.59-5.19.05-9.88,0.37-13.53,1.42-13.07,3.78-15.68,13.49-14.29,18.29,1.61,5.57,6.65,7.86,12.8,6.08,7.11-2.05,12.96-10.61,16.87-22.99,12.59,0.32,27.84,1.94,38.85-1.03C1825.27,3321.74,1831.38,3317.68,1835.23,3311.57Zm-74.72,33.89c-4.8,1.39-8.1.06-9.33-4.17-1.16-4.03.65-11.43,12.37-14.82a50.216,50.216,0,0,1,11.89-1.36C1771.44,3336.47,1766.27,3343.8,1760.51,3345.46Zm74.12-84.93c-3.67,11.06-8.04,29.81-15.34,31.92-1.92.55-3.32-.71-3.93-2.82-2.28-7.88,5.3-26.31,3.35-33.03a4.4,4.4,0,0,0-5.83-2.89c-5.19,1.5-11.31,13.47-15.02,30.15a213.6,213.6,0,0,1,2.54-23.63l-2.83-.43a237.94,237.94,0,0,0-2.76,40.14l2.72,0.05c3.23-21.96,9.98-41.82,16.13-43.59a1.751,1.751,0,0,1,2.22,1.22c1.78,6.15-5.55,24.72-3.21,32.79,1,3.46,3.56,5.84,7.4,4.73,8.65-2.5,13.58-22.88,17.01-34.07Zm-2.79,22.04c1.23,4.23,4.2,5.87,7.46,4.92,4.42-1.27,8.96-8.62,11.33-15.55a24.2,24.2,0,0,0,.49,6.72c1.33,4.62,4.49,6.2,7.76,5.25,7.3-2.11,12.96-19.98,17.12-33.68l-2.26-.59c-3.91,12.37-9.49,29.81-15.64,31.58-1.54.45-3.29,0.12-4.29-3.33-1.39-4.81.65-17.89,2.65-28.25l-2.72-.05c-1.61,10.25-7.53,32.99-15.21,35.21-1.73.5-3.22-.32-4-3.01-2.78-9.6,4.29-34.13,20.49-37.15l-0.15-2.66C1836.18,3245.72,1828.73,3271.81,1831.84,3282.57Zm83.24-95.89c-10,2.89-21.21,9.46-32.42,16.03a40.7,40.7,0,0,0-1.32-8.15c-0.89-3.08-2.52-5.1-4.83-5.89l-0.87,2.75c1.57,0.38,2.59,1.75,3.2,3.86a37.054,37.054,0,0,1,1.35,8.98c-10.18,5.86-20.02,11.41-28.67,13.91-15.75,4.56-22.74.54-24.69-6.18-1.88-6.54,1.42-11.66,5.83-15.85l-2.47-1.36c-4.41,4.19-8.1,10.88-6.05,17.98,2.28,7.88,10.1,13.32,28.16,8.1,8.46-2.44,18.16-7.75,27.76-13.44-0.48,21.37-11.04,51.08-7.6,62.99,1.56,5.38,5.25,8.06,9.67,6.78,9.41-2.72,19.24-28.47,21.34-34.9l-2.26-.6c-2.2,6.05-11.99,30.53-19.86,32.81-2.88.84-5.03-.83-6.2-4.87-3.22-11.14,7.75-41.59,7.57-63.81,11.6-6.69,23.14-13.57,33.13-16.45,5-1.45,8.52-.8,10.72,1.06l1.81-2.4C1925.48,3185.96,1921.22,3184.9,1915.08,3186.68Zm29.94,42.34c-4.11,12.43-7.76,29.31-14.49,31.26-2.3.67-4.12-1.31-4.9-4-2.45-8.45-.34-19.89,2.28-33.14l-2.69-.67c-2.48,14.45-6.03,38.17-16.19,41.94-2.44.92-4.91-.45-6.08-4.48-1.89-6.53-.11-17.67,3.33-30.95l-2.75-.87c-3.58,13.53-5.38,25.29-3.27,32.6,1.55,5.37,5.52,7.56,9.55,6.39,4.23-1.22,8.83-5.46,11.95-16.99a43.951,43.951,0,0,0,1.18,6.95c1.22,4.23,4.53,7.02,8.37,5.91,8.07-2.34,11.53-19.16,15.96-33.35Zm28.24-8.16c-3.07,11.71-13.34,30.92-19.1,32.58-1.15.34-2.14-.21-2.59-1.75-1.77-6.14,4.54-24.62,9.05-32.8l-2.62-1.12a16.091,16.091,0,0,1-9.91,8.91c1.29-7.04,1.28-9.95.5-12.64a4.733,4.733,0,0,0-5.8-3.52c-4.04,1.16-5.36,7.38-3.75,12.95,1.44,4.99,5.02,7.29,9.63,5.95a17.7,17.7,0,0,0,5.43-2.82c-3.46,8.92-6.72,20.69-5.22,25.87,0.84,2.88,3.18,4.5,6.06,3.66,6.72-1.94,16.99-21.15,20.57-34.68Zm-31.53,1.83c-1.17-4.04-.66-8.76,1.83-9.48,0.77-.23,1.76.32,2.15,1.66,0.56,1.93.9,4.53-.48,12.01C1943.66,3226.5,1942.45,3225.19,1941.73,3222.69Zm64.19-11.28c-5.33,17.57-14.28,29.11-21.77,31.28-4.42,1.28-7.53-.11-9.25-6.07a24.619,24.619,0,0,1-.09-11.84c11.83-1.55,21.03-12.95,18.97-20.06-0.89-3.07-3.31-4.25-6.57-3.3-8.84,2.55-18.94,22.34-15,35.98,2.17,7.49,6.96,9.65,12.72,7.98,8.45-2.45,17.67-14.48,23.24-33.37Zm-17.94-7.3c1.73-.5,2.67-0.15,3.11,1.39,1.22,4.22-5.14,14.6-15.66,16.39C1977.93,3213.26,1983.37,3205.44,1987.98,3204.11Z" transform="translate(-1608.44 -3185.78)"/>
</svg>
