<svg xmlns="http://www.w3.org/2000/svg" width="472.375" height="115.13" viewBox="0 0 472.375 115.13">
  <defs>
    <style>
      .cls-1 {
        fill: #4d4d4d;
        fill-rule: evenodd;
      }
    </style>
  </defs>
  <path id="YOUR_LOGO" data-name="YOUR LOGO" class="cls-1" d="M348.22,3183.44h2.97v-8.22l6.57-12.78H354.7l-5.01,10.05-4.92-10.05h-3.06l6.51,12.78v8.22Zm37.38-5.37v-10.26c0-3.33-2.91-5.61-6.99-5.61s-6.989,2.28-6.989,5.61v10.26c0,3.33,2.91,5.61,6.989,5.61S385.6,3181.4,385.6,3178.07Zm-2.94.15c0,1.86-1.71,3.12-4.05,3.12-2.37,0-4.049-1.23-4.049-3.09v-10.62c0-1.83,1.679-3.09,4.049-3.09,2.34,0,4.05,1.26,4.05,3.09v10.59Zm29.85-15.78v15.81c0,1.86-1.71,3.09-4.05,3.09-2.37,0-4.05-1.23-4.05-3.09v-15.81h-2.94v15.63c0,3.33,2.91,5.61,6.99,5.61s7.02-2.28,7.02-5.61v-15.63h-2.97Zm22.02,12.48h3.84l4.38,8.52h3.03l-4.83-8.97a5.358,5.358,0,0,0,3.96-5.16v-1.26c0-3.33-2.79-5.61-6.87-5.61h-6.45v21h2.94v-8.52Zm3.45-10.11c2.37,0,3.96,1.23,3.96,3.06v1.59c0,1.86-1.59,3.12-3.96,3.12h-3.45v-7.77h3.45Zm52.11,12.18v1.26c0,1.86-1.71,3.09-4.05,3.09-2.37,0-4.05-1.23-4.05-3.09v-10.62c0-1.83,1.68-3.09,4.05-3.09,2.34,0,4.05,1.26,4.05,3.09v1.29h2.94v-1.11c0-3.33-2.91-5.61-6.99-5.61s-6.99,2.28-6.99,5.61v10.26c0,3.33,2.91,5.61,6.99,5.61s6.99-2.28,6.99-5.61v-1.08h-2.94Zm32.339,1.08v-10.26c0-3.33-2.91-5.61-6.989-5.61s-6.99,2.28-6.99,5.61v10.26c0,3.33,2.91,5.61,6.99,5.61S522.429,3181.4,522.429,3178.07Zm-2.94.15c0,1.86-1.71,3.12-4.049,3.12-2.37,0-4.05-1.23-4.05-3.09v-10.62c0-1.83,1.68-3.09,4.05-3.09,2.339,0,4.049,1.26,4.049,3.09v10.59Zm21.661,5.22V3168.8l5.1,10.83h1.5l5.1-10.83v14.64h2.7v-21h-2.43l-6.12,12.9-6.119-12.9h-2.43v21h2.7Zm37.139-8.52c4.08,0,6.87-2.28,6.87-5.61v-1.26c0-3.33-2.79-5.61-6.87-5.61h-6.48v21h2.94v-8.52h3.54Zm-0.03-10.11c2.37,0,3.96,1.23,3.96,3.06v1.59c0,1.86-1.59,3.12-3.96,3.12h-3.51v-7.77h3.51Zm21.841,18.63,1.32-4.35h8.1l1.35,4.35h3.06l-6.93-21H603.94l-6.9,21h3.06Zm5.37-17.61,3.329,10.89H602.14Zm25.68,17.61v-15.21l8.609,15.21h2.52v-21h-2.85v15.21l-8.609-15.21H628.3v21h2.85Zm32.009,0h2.97v-8.22l6.57-12.78h-3.06l-5.01,10.05-4.92-10.05h-3.06l6.51,12.78v8.22Zm45.21,0v-15.21l8.61,15.21H719.5v-21h-2.849v15.21l-8.61-15.21h-2.52v21h2.85Zm28.56,0,1.319-4.35h8.1l1.35,4.35h3.06l-6.93-21h-3.06l-6.9,21h3.06Zm5.369-17.61,3.33,10.89h-6.66Zm25.53,17.61V3168.8l5.1,10.83h1.5l5.1-10.83v14.64h2.7v-21H779.8l-6.12,12.9-6.12-12.9h-2.43v21h2.7Zm42.21-2.34h-8.61v-7.02h7.74v-2.37h-7.74v-6.9h8.61v-2.37h-11.55v21h11.55v-2.34Zm-455.047-55.66h12.641v-20.4l16.48-35.6h-13.04l-9.681,22.48-9.52-22.48h-13.04l16.16,35.6v20.4Zm84.08-14.64v-26.72c0-9.2-8.08-15.52-19.2-15.52s-19.2,6.32-19.2,15.52v26.72c0,9.2,8.081,15.52,19.2,15.52S439.071,3120,439.071,3110.8Zm-12.64.64c0,3.12-2.96,5.12-6.56,5.12-3.84,0-6.56-1.92-6.56-5.04v-28.16c0-3.04,2.72-5.04,6.56-5.04,3.6,0,6.56,2,6.56,5.04v28.08Zm59.12-42v42.08c0,3.12-2.96,5.04-6.64,5.04-3.841,0-6.561-1.84-6.561-4.96v-42.16H459.71v41.36c0,9.2,8.08,15.52,19.2,15.52,11.2,0,19.2-6.32,19.2-15.52v-41.36h-12.56Zm46.4,34.8h6.4l8.721,21.2h12.72l-10.88-23.6c5.12-2.64,8.4-7.28,8.4-13.04v-3.84c0-9.2-8.24-15.52-19.361-15.52H519.31v56h12.64v-21.2Zm5.84-25.04c3.84,0,6.88,1.92,6.88,5.04v5.2c0,3.2-3.04,5.04-6.88,5.04h-5.84V3079.2h5.84Zm70.639,46.24H639.15v-9.76H621.069v-46.24h-12.64v56Zm85.681-14.64v-26.72c0-9.2-8.08-15.52-19.2-15.52s-19.2,6.32-19.2,15.52v26.72c0,9.2,8.08,15.52,19.2,15.52S694.11,3120,694.11,3110.8Zm-12.64.64c0,3.12-2.961,5.12-6.561,5.12-3.84,0-6.56-1.92-6.56-5.04v-28.16c0-3.04,2.72-5.04,6.56-5.04,3.6,0,6.561,2,6.561,5.04v28.08Zm52.159-17.76v9.84h6.4v8c0,3.12-2.96,5.04-6.56,5.04-3.84,0-6.56-1.84-6.56-4.96v-28.24c0-3.04,2.72-5.04,6.56-5.04,3.6,0,6.56,2,6.56,5.04v3.92H752.67v-3.2c0-9.2-8.081-15.52-19.2-15.52s-19.2,6.32-19.2,15.52v26.72c0,9.2,8.08,15.52,19.2,15.52s19.2-6.32,19.2-15.52v-17.12H733.629Zm77.6,17.12v-26.72c0-9.2-8.08-15.52-19.2-15.52s-19.2,6.32-19.2,15.52v26.72c0,9.2,8.081,15.52,19.2,15.52S811.229,3120,811.229,3110.8Zm-12.64.64c0,3.12-2.96,5.12-6.56,5.12-3.84,0-6.56-1.92-6.56-5.04v-28.16c0-3.04,2.72-5.04,6.56-5.04,3.6,0,6.56,2,6.56,5.04v28.08Z" transform="translate(-338.844 -3068.56)"/>
</svg>
