<svg xmlns="http://www.w3.org/2000/svg" width="2480" height="3508" viewBox="0 0 2480 3508">
  <defs>
    <style>
      .cls-1 {
        fill: #e9e9e9;
      }

      .cls-2, .cls-4 {
        fill: #fff;
      }

      .cls-3 {
        fill: #f7f7f7;
      }

      .cls-4 {
        stroke: #bfbfbf;
        stroke-width: 1px;
      }

      .cls-5 {
        fill: #4d4d4d;
        fill-rule: evenodd;
      }
    </style>
  </defs>
  <g id="Certificate_2022_44">
    <rect id="Прямоугольник_1" data-name="Прямоугольник 1" class="cls-1" y="-8" width="224" height="3516"/>
    <rect id="Прямоугольник_2" data-name="Прямоугольник 2" class="cls-2" x="224" y="479" width="2256" height="2521"/>
    <rect id="Прямоугольник_4_копия_3_copy" data-name="Прямоугольник 4 копия 3 copy" class="cls-3" x="224" y="2999" width="2260" height="509"/>
    <rect id="Прямоугольник_4" data-name="Прямоугольник 4" class="cls-3" x="224" width="2260" height="480"/>
    <rect id="Прямоугольник_4_копия" data-name="Прямоугольник 4 копия" class="cls-4" x="1137" y="409" width="435" height="139" rx="69.5" ry="69.5"/>
    <path id="Certificate" class="cls-5" d="M533.47,331.02a94.033,94.033,0,0,0,34.86-6.58,86.172,86.172,0,0,0,29.82-19.88,3.5,3.5,0,0,0,0-4.2,2.469,2.469,0,0,0-1.82-.7,3.57,3.57,0,0,0-2.38.98,78.849,78.849,0,0,1-27.58,18.55,87.158,87.158,0,0,1-32.34,6.09,84.5,84.5,0,0,1-61.46-25.62,83.63,83.63,0,0,1-17.99-27.23,86.117,86.117,0,0,1,.21-65.52,88.307,88.307,0,0,1,18.34-27.65,84.881,84.881,0,0,1,92.82-18.55,88.456,88.456,0,0,1,28.42,19.11,2.061,2.061,0,0,0,1.96.98,2.849,2.849,0,0,0,2.1-.84,3.454,3.454,0,0,0,.84-1.96,2.955,2.955,0,0,0-.98-2.1,93.913,93.913,0,0,0-30.03-20.37,90.19,90.19,0,0,0-81.69,5.95,90.41,90.41,0,0,0-18.2,14.63,92.711,92.711,0,0,0-25.76,63.77,91.832,91.832,0,0,0,26.46,64.47,88.543,88.543,0,0,0,18.34,14.21,89.746,89.746,0,0,0,21.98,9.24,90.794,90.794,0,0,0,24.08,3.22h0Zm148.678-1.82h86.52a2.687,2.687,0,0,0,1.96-.84,3.026,3.026,0,0,0,.84-2.24,2.26,2.26,0,0,0-.84-1.82,2.974,2.974,0,0,0-1.96-.7h-83.58V242.26h63a2.743,2.743,0,0,0,2.03-.77,2.57,2.57,0,0,0,.77-1.89,2.974,2.974,0,0,0-.7-1.96,2.26,2.26,0,0,0-1.82-.84h-63.28V155.6h83.58a2.871,2.871,0,0,0,2.8-2.8,2.624,2.624,0,0,0-.84-2.03,2.816,2.816,0,0,0-1.96-.77h-85.96a3.759,3.759,0,0,0-2.24.7,2.413,2.413,0,0,0-.98,2.1V325.84a3.745,3.745,0,0,0,.7,2.24,2.648,2.648,0,0,0,1.96,1.12h0Zm175.7,0a2.871,2.871,0,0,0,2.8-2.8V247.86H899.7l51.38,79.8a2.882,2.882,0,0,0,2.52,1.68,1.979,1.979,0,0,0,.84-0.14,3.342,3.342,0,0,0,1.61-.98,2.422,2.422,0,0,0,.63-1.68,3.728,3.728,0,0,0-.42-1.68l-50.12-77a55.357,55.357,0,0,0,19.74-3.78,50.444,50.444,0,0,0,16.24-10.22,47.015,47.015,0,0,0,10.71-15.54,48.416,48.416,0,0,0,3.85-19.32,49.647,49.647,0,0,0-3.85-19.67,44.981,44.981,0,0,0-10.99-15.61,49.043,49.043,0,0,0-16.45-10.15,56.77,56.77,0,0,0-20.23-3.57h-47.32a2.645,2.645,0,0,0-2.8,2.8V326.4a2.871,2.871,0,0,0,2.8,2.8h0Zm2.8-87.08V155.6h44.24a51.412,51.412,0,0,1,18.41,3.22,43.542,43.542,0,0,1,14.77,9.24,39.953,39.953,0,0,1,9.66,13.86,43.562,43.562,0,0,1,3.36,17.08,41.494,41.494,0,0,1-3.36,16.52,42.333,42.333,0,0,1-24.01,23.24,49.106,49.106,0,0,1-18.27,3.36h-44.8ZM1081.42,329.2a2.618,2.618,0,0,0,2.03-.84,2.96,2.96,0,0,0,.77-2.1V155.6h53.34a2.473,2.473,0,0,0,2.8-2.8,2.781,2.781,0,0,0-.77-1.96,2.618,2.618,0,0,0-2.03-.84H1027.8a2.8,2.8,0,0,0,0,5.6h50.82V326.26a3,3,0,0,0,.77,2.1,2.633,2.633,0,0,0,2.03.84h0Zm138.74,0a2.871,2.871,0,0,0,2.8-2.8V152.8a2.645,2.645,0,0,0-2.8-2.8,2.645,2.645,0,0,0-2.8,2.8V326.4a2.871,2.871,0,0,0,2.8,2.8h0Zm98,0a2.645,2.645,0,0,0,2.8-2.8V241.56h64.96q2.94,0,2.94-2.66a2.759,2.759,0,0,0-.77-2.03,2.94,2.94,0,0,0-2.17-.77h-64.96V155.6h85.68a2.473,2.473,0,0,0,2.8-2.8,2.624,2.624,0,0,0-.84-2.03,2.81,2.81,0,0,0-1.96-.77h-88.48a2.586,2.586,0,0,0-2.1.84,2.953,2.953,0,0,0-.7,1.96V326.4a2.473,2.473,0,0,0,2.8,2.8h0Zm170.66,0a2.871,2.871,0,0,0,2.8-2.8V152.8a2.873,2.873,0,0,0-4.83-2.03,2.72,2.72,0,0,0-.77,2.03V326.4a2.871,2.871,0,0,0,2.8,2.8h0Zm173.88,1.82a94.044,94.044,0,0,0,34.86-6.58,86.283,86.283,0,0,0,29.82-19.88,3.5,3.5,0,0,0,0-4.2,2.48,2.48,0,0,0-1.82-.7,3.559,3.559,0,0,0-2.38.98,78.9,78.9,0,0,1-27.58,18.55,87.17,87.17,0,0,1-32.34,6.09,84.5,84.5,0,0,1-61.46-25.62,83.519,83.519,0,0,1-17.99-27.23,86.117,86.117,0,0,1,.21-65.52,88.2,88.2,0,0,1,18.34-27.65,84.881,84.881,0,0,1,92.82-18.55,88.532,88.532,0,0,1,28.42,19.11,2.054,2.054,0,0,0,1.96.98,2.849,2.849,0,0,0,2.1-.84,3.454,3.454,0,0,0,.84-1.96,2.959,2.959,0,0,0-.98-2.1,93.946,93.946,0,0,0-30.03-20.37,90.19,90.19,0,0,0-81.69,5.95,90.382,90.382,0,0,0-18.2,14.63,92.711,92.711,0,0,0-25.76,63.77,91.832,91.832,0,0,0,26.46,64.47,88.385,88.385,0,0,0,18.34,14.21,89.73,89.73,0,0,0,21.98,9.24,90.761,90.761,0,0,0,24.08,3.22h0Zm132.43-1.96a4.467,4.467,0,0,0,1.26.28,2.443,2.443,0,0,0,2.38-1.82l26.46-61.46h91.84l26.46,61.6a2.691,2.691,0,0,0,2.52,1.68,4.59,4.59,0,0,0,1.4-.28,2.329,2.329,0,0,0,1.4-2.24,4.514,4.514,0,0,0-.28-1.4l-74.62-173.74a2.946,2.946,0,0,0-5.32,0l-74.9,173.6a4.828,4.828,0,0,0-.28,1.4,2.43,2.43,0,0,0,1.68,2.38h0Zm32.48-68.74,43.68-101.36,43.4,101.36h-87.08Zm206.5,68.88a2.618,2.618,0,0,0,2.03-.84,2.96,2.96,0,0,0,.77-2.1V155.6h53.34a2.473,2.473,0,0,0,2.8-2.8,2.781,2.781,0,0,0-.77-1.96,2.618,2.618,0,0,0-2.03-.84H1980.49a2.8,2.8,0,0,0,0,5.6h50.82V326.26a3,3,0,0,0,.77,2.1,2.633,2.633,0,0,0,2.03.84h0Zm138.6,0h86.52a2.681,2.681,0,0,0,1.96-.84,3.026,3.026,0,0,0,.84-2.24,2.26,2.26,0,0,0-.84-1.82,2.966,2.966,0,0,0-1.96-.7h-83.58V242.26h63a2.737,2.737,0,0,0,2.03-.77,2.54,2.54,0,0,0,.77-1.89,2.953,2.953,0,0,0-.7-1.96,2.244,2.244,0,0,0-1.82-.84h-63.28V155.6h83.58a2.871,2.871,0,0,0,2.8-2.8,2.624,2.624,0,0,0-.84-2.03,2.81,2.81,0,0,0-1.96-.77h-85.96a3.776,3.776,0,0,0-2.24.7,2.423,2.423,0,0,0-.98,2.1V325.84a3.8,3.8,0,0,0,.7,2.24,2.655,2.655,0,0,0,1.96,1.12h0Z"/>
  </g>
</svg>
